<svg version="1.2" xmlns="http://www.w3.org/2000/svg" viewBox="0 0 310 300" width="310" height="300">
	<title>libGDX-svg</title>
	<style>
		.s0 { fill: #ffffff } 
		.s1 { fill: #e74a45 } 
	</style>
	<path id="rect3018" class="s0" d="m5 125h14v50h-14z"/>
	<path id="rect3026" class="s0" d="m28 144h14v31h-14z"/>
	<path id="rect3028" class="s0" d="m28 125h14v12h-14z"/>
	<path id="rect3030" fill-rule="evenodd" class="s0" d="m65 125v19h9.9c7.8 0 14.1 6.9 14.1 15.5 0 8.6-6.3 15.5-14.1 15.5h-23.9v-50zm0 38h5.9c2.2 0 4-1.8 4-4 0-2.2-1.8-4-4-4h-5.9z"/>
	<path id="rect3030-3" class="s1" d="m109 125c-7.7 0-14 6.9-14 15.5q0 0.2 0 0.3 0 0 0 0.1v18.2q0 0.2 0 0.4c0 8.6 6.3 15.5 14 15.5h9.9 1.2 12.8 1.2 9.9c7.7 0 14-6.9 14-15.5 0-8.6-6.3-15.5-14-15.5h-5.6-2.3-11.1v11h11.1 2.3 1.6c2.2 0 4 1.8 4 4 0 2.2-1.8 4-4 4h-3.9-2-1.2-12.8-1.2-2-3.9c-2.2 0-3.9-1.7-4-3.9v-18.2-0.1c0.1-2.1 1.9-3.8 4-3.8h3.9 2 6.1v0.1h31v-12.1h-23.1-7.9-6.1c0 0-9.9 0-9.9 0z"/>
	<path id="rect3030-3-4-2" class="s1" d="m165 125v12.1h25.3 8.8 5.1 2.1 3.8c2.1 0 3.9 1.6 4 3.7v0.1 18.2c-0.1 2.2-1.8 3.9-4 3.9h-3.8-2.1-8.9-5-11.4v-19h-13.9v19 8.2 3.8h25.3 5 8.9 9.9c7.7 0 13.9-6.9 13.9-15.5q0-0.2 0-0.4v-18.2q0 0 0-0.1 0-0.1 0-0.3c0-8.5-6.2-15.5-13.9-15.5h-9.9-5.1c0 0-34.1 0-34.1 0z"/>
	<path id="path4169" class="s1" d="m228 125h19.4l19.1 19.1 19.1-19.1h19.4l-25 25 25 25h-19.4l-19.1-19.1-19.1 19.1h-19.4l25-25z"/>
</svg>