<svg version="1.2" xmlns="http://www.w3.org/2000/svg" viewBox="0 0 512 512" width="512" height="512">
	<title>nativescript-svg</title>
	<style>
		.s0 { fill: #3c5afd } 
	</style>
	<path id="Layer" fill-rule="evenodd" class="s0" d="m365.2 146.8q18.1 18 18.8 45.2v128q-0.7 27.2-18.8 45.2-18 18.1-45.2 18.8h-128q-27.2-0.7-45.2-18.8-18.1-18-18.8-45.2v-128q0.7-27.2 18.8-45.2 18-18.1 45.2-18.8h128q27.2 0.7 45.2 18.8zm-17.6 103q-6-6.1-6.3-15.1v-42.7q-0.2-9.1-6.2-15.1-6-6-15.1-6.2h-21.3v106.6l-85.4-106.6h-21.3q-9.1 0.2-15.1 6.2-6 6-6.2 15.1v42.7q-0.3 9-6.3 15.1-6 5.9-15.1 6.2 9.1 0.3 15.1 6.2 6 6.1 6.3 15.1v42.7q0.2 9.1 6.2 15.1 6 6 15.1 6.2h21.3v-106.6l85.4 106.6h21.3q9.1-0.2 15.1-6.2 6-6 6.2-15.1v-42.7q0.3-9 6.3-15.1 6-5.9 15.1-6.2-9.1-0.3-15.1-6.2z"/>
</svg>