<svg version="1.2" xmlns="http://www.w3.org/2000/svg" viewBox="0 0 280 280" width="280" height="280">
	<title>spark-java-svg</title>
	<style>
		.s0 { opacity: .5;fill: #ffa64d } 
		.s1 { opacity: .3;fill: #ffa64d } 
		.s2 { opacity: .2;fill: #ffa64d } 
		.s3 { opacity: .1;fill: #ffa64d } 
	</style>
	<g id="Layer">
		<path id="Layer" class="s0" d="m37.2 183c16.8-17 231.1-178.2 234.7-174.6 2.8 2.9-156.5 219.7-173.4 236.6-16.8 17-44.2 16.8-61.1-0.3-17-17-17-44.7-0.2-61.7z"/>
		<path id="Layer" class="s1" d="m46.7 175.4c20.6-12 230.1-95.1 232.6-90.6 2 3.4-168.7 154.5-189.5 166.5-20.6 12-47 4.8-58.9-16.2-11.9-20.8-4.8-47.6 15.8-59.7z"/>
		<path id="Layer" class="s1" d="m106.1 235.3c12-20.8 94.3-231.8 89.9-234.4-3.5-1.9-153.3 170.1-165.3 191-12 20.8-4.7 47.3 16.1 59.2 20.7 12 47.2 4.9 59.3-15.8z"/>
		<path id="Layer" class="s2" d="m56.7 171c23.1-6.2 216.5-30.2 218-25.2 1 3.9-172.8 103.4-195.8 109.7-23.1 6.3-46.7-7.6-52.8-30.9-6.1-23.4 7.7-47.3 30.6-53.6z"/>
		<path id="Layer" class="s3" d="m56.7 171c23.1-6.2 179.4 29.1 180.7 34 1.1 3.8-135.6 44.2-158.6 50.4-23.1 6.3-46.7-7.6-52.8-30.9-6-23.3 7.8-47.2 30.7-53.5z"/>
		<path id="Layer" class="s3" d="m110.5 225.1c6.2-23.3-28.9-180.7-33.9-182.1-3.8-1-43.8 136.6-50 159.8-6.2 23.3 7.6 47.1 30.8 53.1 23.1 6.2 46.9-7.6 53.1-30.8z"/>
		<path id="Layer" class="s2" d="m110.5 225.1c6.2-23.3 29.9-218.2 25-219.5-3.8-1-102.6 174-108.9 197.3-6.2 23.3 7.6 47.1 30.8 53.1 23.1 6.2 46.9-7.7 53.1-30.9z"/>
	</g>
</svg>